<?xml version="1.0" standalone="no"?><!DOCTYPE svg PUBLIC "-//W3C//DTD SVG 1.1//EN" "http://www.w3.org/Graphics/SVG/1.1/DTD/svg11.dtd"><svg t="1571213701009" class="icon" viewBox="0 0 1024 1024" version="1.1" xmlns="http://www.w3.org/2000/svg" p-id="2490" xmlns:xlink="http://www.w3.org/1999/xlink" width="128" height="128"><defs><style type="text/css"></style></defs><path d="M291.84 546.816L153.6 824.32c-11.264 31.744 13.312 59.392 45.056 45.056l278.528-137.216c12.288-2.048 23.552-7.168 32.768-16.384l494.592-494.592c24.576-24.576 24.576-65.536 0-90.112l-112.64-112.64c-24.576-24.576-65.536-24.576-90.112 0L308.224 513.024c-9.216 9.216-14.336 21.504-16.384 33.792m533.504-460.8c12.288-12.288 32.768-12.288 45.056 0l67.584 67.584c12.288 12.288 12.288 32.768 0 45.056L869.376 266.24 758.784 151.552l66.56-65.536M711.68 199.68l113.664 111.616-360.448 359.424-20.48-20.48-2.048-2.048-67.584-67.584-22.528-22.528 359.424-358.4M409.6 704.512L237.568 808.96c-15.36 7.168-29.696-8.192-22.528-22.528L318.464 614.4l91.136 90.112m549.888-320.512v512c0 34.816-34.816 64.512-69.632 64.512H126.976c-34.816 0-63.488-28.672-63.488-63.488V133.12c0-34.816 29.696-69.632 64.512-69.632h512V0h-512C57.344 0 0 63.488 0 133.12v762.88C0 966.656 57.344 1024 126.976 1024h762.88c70.656 0 134.144-57.344 134.144-128v-512h-64.512" p-id="2491" fill="#222222"></path></svg>