<?xml version="1.0" standalone="no"?><!DOCTYPE svg PUBLIC "-//W3C//DTD SVG 1.1//EN" "http://www.w3.org/Graphics/SVG/1.1/DTD/svg11.dtd"><svg t="1571040040774" class="icon" viewBox="0 0 1024 1024" version="1.1" xmlns="http://www.w3.org/2000/svg" p-id="21419" xmlns:xlink="http://www.w3.org/1999/xlink" width="128" height="128"><defs><style type="text/css"></style></defs><path d="M0 0h1024v287c-21.67-0.02-43.35 0.03-65.02-0.02-6.97-0.2-13.9 1.25-20.87 0.53-42.37-0.3-84.75 0.15-127.13 0.18-60.67 0.17-121.33 0.27-181.99 0.29-24.99 0.13-49.98-0.21-74.96 0.2-30.12-5.02-61.23-4.54-91.11 1.85-39.92 8.77-77.34 28.68-106.9 56.92-27.52 25.95-48.54 58.81-60.14 94.84-14.8 44.8-14.51 94.11-0.73 139.11 2.5 8.56 5.93 16.79 9.03 25.13-9.02-14.83-17.32-30.1-26.1-45.07-42.35-73.52-85.29-146.71-128.08-219.97-15.78-26.35-30.92-53.06-46.43-79.56-4.74-9.66-10.43-18.81-15.72-28.17-5.54-9.49-10.84-19.12-16.63-28.47-4.35-6.68-8.78-13.31-12.97-20.09C38.8 151.03 19.49 117.29 0 83.65V0zM304.37 606.38l0.13 0.2 0.14 0.29c-0.07-0.12-0.2-0.37-0.27-0.49z" fill="#D94F42" p-id="21420"></path><path d="M0 83.65c19.49 33.64 38.8 67.38 58.25 101.05 4.19 6.78 8.62 13.41 12.97 20.09 5.79 9.35 11.09 18.98 16.63 28.47 5.29 9.36 10.98 18.51 15.72 28.17 15.51 26.5 30.65 53.21 46.43 79.56 42.79 73.26 85.73 146.45 128.08 219.97 8.78 14.97 17.08 30.24 26.1 45.07l0.19 0.35c0.07 0.12 0.2 0.37 0.27 0.49 14.96 32.85 37.91 61.98 66.18 84.39 30.8 24.58 68.12 40.93 107.11 46.7 39.28 5.78 80.09 1.55 117.13-12.88 15.23-5.88 29.73-13.57 43.38-22.52 21.65-14.39 40.23-32.95 56.59-53.05-30.01 53.66-60.77 106.9-91.22 160.31-25.42 44.24-50.54 88.66-76.22 132.75-15.59 27.12-31.07 54.32-46.69 81.43H0V83.65z" fill="#19A05E" p-id="21421"></path><path d="M462.92 290.03c29.88-6.39 60.99-6.87 91.11-1.85 4.26 1.65 8.79 2.32 13.19 3.51 35.19 9.15 68.22 26.58 95.55 50.57 26.07 22.56 46.4 51.47 59.79 83.18 28.53 68.29 21.55 150.72-19.81 212.36-2.66 3.85-5.39 7.65-7.72 11.71-16.36 20.1-34.94 38.66-56.59 53.05-13.65 8.95-28.15 16.64-43.38 22.52-37.04 14.43-77.85 18.66-117.13 12.88-38.99-5.77-76.31-22.12-107.11-46.7-28.27-22.41-51.22-51.54-66.18-84.39l-0.14-0.29-0.13-0.2-0.19-0.35c-3.1-8.34-6.53-16.57-9.03-25.13-13.78-45-14.07-94.31 0.73-139.11 11.6-36.03 32.62-68.89 60.14-94.84 29.56-28.24 66.98-48.15 106.9-56.92m41.35 40.49c-22.79 0.89-45.46 6.02-66.24 15.47-33.91 15.32-62.97 41.16-82.15 73.04-21.03 34.74-29.26 76.76-24.05 116.93 4.14 33.76 18.15 66.16 39.82 92.37 25.59 31.21 61.9 53.38 101.28 62.15 18.7 4.31 38.04 4.79 57.11 3.46 40.3-3.78 79.14-21.55 108.35-49.57 25.21-24.01 43.3-55.38 51.35-89.25 5.19-21.13 6-43.18 3.68-64.75-6.31-54.85-39.39-105.76-86.77-134.05-30.53-18.57-66.74-27.42-102.38-25.8z" fill="#F2F2F2" p-id="21422"></path><path d="M810.98 287.69c42.38-0.03 84.76-0.48 127.13-0.18 6.97 0.72 13.9-0.73 20.87-0.53 21.67 0.05 43.35 0 65.02 0.02v737H480.9c15.62-27.11 31.1-54.31 46.69-81.43 25.68-44.09 50.8-88.51 76.22-132.75 30.45-53.41 61.21-106.65 91.22-160.31 2.33-4.06 5.06-7.86 7.72-11.71 41.36-61.64 48.34-144.07 19.81-212.36-13.39-31.71-33.72-60.62-59.79-83.18-27.33-23.99-60.36-41.42-95.55-50.57-4.4-1.19-8.93-1.86-13.19-3.51 24.98-0.41 49.97-0.07 74.96-0.2 60.66-0.02 121.32-0.12 181.99-0.29z" fill="#FDCA41" p-id="21423"></path><path d="M504.27 330.52c35.64-1.62 71.85 7.23 102.38 25.8 47.38 28.29 80.46 79.2 86.77 134.05 2.32 21.57 1.51 43.62-3.68 64.75-8.05 33.87-26.14 65.24-51.35 89.25-29.21 28.02-68.05 45.79-108.35 49.57-19.07 1.33-38.41 0.85-57.11-3.46-39.38-8.77-75.69-30.94-101.28-62.15-21.67-26.21-35.68-58.61-39.82-92.37-5.21-40.17 3.02-82.19 24.05-116.93 19.18-31.88 48.24-57.72 82.15-73.04 20.78-9.45 43.45-14.58 66.24-15.47z" fill="#4B8BF5" p-id="21424"></path></svg>