<?xml version="1.0" standalone="no"?><!DOCTYPE svg PUBLIC "-//W3C//DTD SVG 1.1//EN" "http://www.w3.org/Graphics/SVG/1.1/DTD/svg11.dtd"><svg t="1571053998465" class="icon" viewBox="0 0 1024 1024" version="1.1" xmlns="http://www.w3.org/2000/svg" p-id="1346" xmlns:xlink="http://www.w3.org/1999/xlink" width="128" height="128"><defs><style type="text/css"></style></defs><path d="M512 0C229.248 0 0 229.248 0 512s229.248 512 512 512 512-229.248 512-512S794.752 0 512 0z m0 981.344C252.8 981.344 42.656 771.168 42.656 512S252.832 42.656 512 42.656 981.344 252.8 981.344 512 771.2 981.344 512 981.344zM948 512c0 205.024-141.536 376.864-332.192 423.456-11.52-22.24-22.624-43.392-31.968-61.344 27.52 10.624 82.336 30.624 94.208 26.24 16.032-6.144 12.032-134.368-5.984-138.464-14.432-3.2-69.632 35.712-91.36 51.584l1.44 6.656c3.328 16.928 6.144 42.368 1.28 53.216a2.688 2.688 0 0 1-0.16 0.544 9.28 9.28 0 0 1-2.88 3.744h-0.032c-12.128 8.032-46.112 12.128-64.128 8.032a20.384 20.384 0 0 1-2.88-0.896l0.16 0.064c-29.6 16.896-85.76 47.328-96 41.44-14.048-8.032-16.096-114.176-14.048-140.288 1.504-19.616 70.528 12.192 104.192 28.96 7.424-6.944 25.696-11.616 41.824-13.216-24.32-59.264-42.24-127.008-31.264-175.136 0 0.096 0.096 0.096 0.096 0.096 15.2 10.592 116.48 44.8 166.816 43.808 50.336-1.024 132.864-31.712 123.872-56.448-9.056-24.736-91.104 21.76-176.736 13.824-63.392-5.888-74.592-34.304-60.576-55.04 17.664-26.08 49.824 4.96 102.88-10.912 53.12-15.84 127.456-44.16 154.976-59.616 63.744-35.552-26.656-50.208-48-40.416-20.224 9.376-90.592 27.168-123.264 34.976 18.272-64.672-25.728-177.024-74.976-226.144-16.032-16.032-40.576-26.112-68.384-31.392-10.656-14.688-27.904-28.64-52.256-41.696a243.232 243.232 0 0 0-114.176-28.064c-13.856 0-27.424 1.152-40.672 3.328l1.44-0.192-1.024 0.16-1.44 0.16 0.16 0.096c-6.304 1.184-10.112 3.424-15.232 4.192 6.304 0.672 30.08 11.776 45.088 17.824-7.424 2.912-17.568 4.608-25.44 7.84a36.608 36.608 0 0 0-8.928 2.464l0.224-0.096c-7.392 3.424-12.928 16-12.8 21.984 35.84-3.68 88.832-1.12 127.616 10.496-27.488 3.84-52.704 11.008-70.88 20.576l-2.048 1.184a60.992 60.992 0 0 0-6.496 2.816c-58.336 30.72-84.096 102.624-68.736 188.768 13.792 77.824 71.04 345.088 97.696 472.064-169.504-59.744-291.072-221.28-291.072-411.264 0-240.8 195.2-436 436-436s436 195.2 436 436z m-559.936-103.2a32.352 32.352 0 0 0 0 64.704 32.352 32.352 0 0 0 0-64.704z m14.4 29.952a8.352 8.352 0 0 1 0-16.704 8.352 8.352 0 0 1 0 16.704z m201.568-44.512l-1.088-0.032a27.744 27.744 0 1 0 0 55.488l1.152-0.032h-0.064a27.744 27.744 0 1 0 0-55.488z m12.384 25.632a7.168 7.168 0 1 1 0-14.336 7.168 7.168 0 1 1 0 14.336z m-219.072-72.32s-24.352-11.104-48 3.84c-23.648 14.848-22.784 30.048-22.784 30.048s-12.544-28 20.896-41.728c33.536-13.664 49.92 7.84 49.92 7.84z m223.424-2.208s-17.504-9.984-31.136-9.824c-27.904 0.352-35.456 12.64-35.456 12.64s4.704-29.344 40.32-23.456c11.808 2.208 21.44 9.984 26.176 20.416l0.096 0.224z" fill="#DE5833" p-id="1347"></path></svg>