<?xml version="1.0" standalone="no"?><!DOCTYPE svg PUBLIC "-//W3C//DTD SVG 1.1//EN" "http://www.w3.org/Graphics/SVG/1.1/DTD/svg11.dtd"><svg t="1571052071634" class="icon" viewBox="0 0 1024 1024" version="1.1" xmlns="http://www.w3.org/2000/svg" p-id="10167" xmlns:xlink="http://www.w3.org/1999/xlink" width="128" height="128"><defs><style type="text/css"></style></defs><path d="M64 128h896v768H64z" fill="#FFFFFF" p-id="10168"></path><path d="M1024 192v640c0 36.8-27.2 64-64 64h-64V315.2L512 590.4 128 315.2V896H64c-36.8 0-64-27.2-64-64V192c0-17.6 6.4-33.6 17.6-44.8C30.4 134.4 46.4 128 64 128h20.8L512 436.8 939.2 128H960c17.6 0 33.6 6.4 46.4 19.2 11.2 11.2 17.6 27.2 17.6 44.8z" fill="#D81E06" p-id="10169"></path></svg>