<?xml version="1.0" standalone="no"?><!DOCTYPE svg PUBLIC "-//W3C//DTD SVG 1.1//EN" "http://www.w3.org/Graphics/SVG/1.1/DTD/svg11.dtd"><svg t="1571039653929" class="icon" viewBox="0 0 1166 1024" version="1.1" xmlns="http://www.w3.org/2000/svg" p-id="11073" xmlns:xlink="http://www.w3.org/1999/xlink" width="145.75" height="128"><defs><style type="text/css"></style></defs><path d="M705.875 540.82s1.759 30.946 124.25 12.777c0 0-14.652 336.176 9.142 445.89 0 0-9.142 31.062-38.33-76.776s-36.63-133.334-49.347-138.901-71.268 32.937-100.454 95.062-45.715 137.025-45.715 137.025-19.458 14.652-19.81-9.142 16.118-147.986 16.118-147.986-33.7 86.975-39.56 132.572-17.583 4.688-15.239-9.378 15.825-76.542-0.351-113.816c0 0-14.887-6.916-112.176 139.604 0 0-8.205 21.802-17.582 12.66s1.172-23.21 10.549-46.653 50.403-119.56 63.297-131.282c0 0-38.682 7.033-59.78-3.516S384 808.484 400.41 731.12c6.564-31.061 7.326-0.468 4.689 22.272-5.392 48.059 13.949 75.487 50.754 67.516 38.682-8.322 58.257-39.15 58.257-39.15z m455.033-480.586s-40.79 41.378-126.124 40.206c-39.56-0.47-64.352-2.814-69.392-18.286-7.854-24.381 59.78-60.25 144.41-55.443 0 0-75.018-39.56-310.74-21.216S241.758 168.073 241.758 168.073s1.876 12.777-29.187-9.143-69.392-38.33-80.41-36.63-31.062 0-34.696 47.473L0 407.429s64.586 47.472 141.245 18.285 76.777-127.882 58.491-160.82c0 0 11.019-1.876 21.978 16.41s131.4 87.678 173.539 105.963S665.67 485.73 720.527 499.56s118.682 2.814 144.294-20.981S1023.766 308.615 1056.76 252c0 0-411.72 67.634-528.41 18.286 0 0-17.933 9.143-27.076 3.633s1.875-38.33 11.018-34.696S528.41 252 528.41 252s133.744 49.348 541.187-23.795c-0.117 0.117 120.498-116.747 91.311-167.97z m-643.692 86.154c-22.74 2.579-23.091-35.399-13.597-58.842 6.564-16.117 41.26-22.506 40.557 4.395-0.938 34.11-5.627 52.044-26.96 54.506z m0 0" fill="#d81e06" p-id="11074"></path></svg>