<?xml version="1.0" standalone="no"?><!DOCTYPE svg PUBLIC "-//W3C//DTD SVG 1.1//EN" "http://www.w3.org/Graphics/SVG/1.1/DTD/svg11.dtd"><svg t="1571039523914" class="icon" viewBox="0 0 1024 1024" version="1.1" xmlns="http://www.w3.org/2000/svg" p-id="3974" xmlns:xlink="http://www.w3.org/1999/xlink" width="128" height="128"><defs><style type="text/css"></style></defs><path d="M1015.062344 508.169576c0-280.897756-227.27182-508.169576-508.169576-508.169576C228.548628 0 1.276808 227.27182 1.276808 508.169576s227.27182 508.169576 508.169576 508.169576c66.394015 0 130.234414-12.76808 191.521197-38.304239 76.608479-30.643392 145.55611-81.715711 199.182045-148.109726 71.501247-86.822943 114.912718-199.182045 114.912718-321.755611zM677.985037 939.730673c-56.179551 17.875312-109.805486 30.643392-168.538653 30.643392-255.361596 0-462.204489-206.842893-462.204489-462.204489S254.084788 45.965087 509.446384 45.965087 971.650873 252.80798 971.650873 508.169576c0 112.359102-40.857855 217.057357-109.805486 298.773067-48.518703 58.733167-112.359102 104.698254-183.86035 132.78803z" fill="#FA4D23" p-id="3975"></path><path d="M499.23192 699.690773s-183.860349 2.553616-286.004987-91.930174L205.566085 737.995012s607.760599 219.610973 612.86783-132.788029c0 0 12.76808-84.269327-206.842893-143.002494 0 0-86.822943-20.428928-183.860349-76.608479 0 0-53.625935-61.286783 99.591023-48.518703 181.306733 15.321696 275.790524 61.286783 275.790523 61.286783V283.451372s-413.685786-155.770574-574.563591 22.982543c0 0-53.625935 81.715711 2.553616 132.78803s168.538653 114.912718 316.648379 153.216958c0-2.553616 191.521197 86.822943-48.518703 107.25187z" fill="#FA4D23" p-id="3976"></path></svg>