<?xml version="1.0" standalone="no"?><!DOCTYPE svg PUBLIC "-//W3C//DTD SVG 1.1//EN" "http://www.w3.org/Graphics/SVG/1.1/DTD/svg11.dtd"><svg t="1571052024066" class="icon" viewBox="0 0 1024 1024" version="1.1" xmlns="http://www.w3.org/2000/svg" p-id="9377" xmlns:xlink="http://www.w3.org/1999/xlink" width="128" height="128"><defs><style type="text/css"></style></defs><path d="M908.24704 222.0032l0 110.5408 0 8.4992c-1.14688 22.10816-6.10304 37.98016-14.87872 47.616-8.78592 9.63584-21.9648 15.29856-39.54688 17.00864-2.26304 1.13664-7.64928 1.69984-16.15872 1.69984l-166.66624 0-29.75744 0c-38.54336 5.66272-57.81504 24.3712-57.81504 56.1152l0 51.01568c3.39968 2.83648 43.07968 23.52128 119.04 62.06464 3.97312 2.26304 5.09952 5.38624 3.39968 9.35936l-0.84992 0.84992c-1.13664 2.26304-4.2496 3.39968-9.34912 3.39968l-59.52512-10.19904-52.71552-10.20928 0 396.22656c0 4.53632-2.54976 6.79936-7.64928 6.79936-3.97312 0-6.23616-1.69984-6.79936-5.09952-0.5632-0.5632-0.84992-1.1264-0.84992-1.69984l-17.85856-57.82528c-2.83648-6.79936-5.81632-14.87872-8.92928-24.22784-3.11296-9.35936-6.0928-19.12832-8.92928-29.3376-2.83648-10.20928-4.53632-16.44544-5.09952-18.70848-0.5632-3.39968-3.11296-5.09952-7.64928-5.09952l-17.85856 0c-3.97312 0-6.52288 1.69984-7.64928 5.09952-2.83648 17.00864-10.20928 41.10336-22.10816 72.27392l-17.85856 57.82528 0 0.84992C453.61152 970.81344 451.06176 972.8 446.52544 972.8l-0.84992 0c-5.09952 0-7.64928-2.26304-7.64928-6.79936l0-396.22656-52.71552 10.20928-59.52512 10.19904c-4.53632 0-7.65952-1.13664-9.35936-3.39968l0-0.84992c-1.13664-3.97312-0.28672-7.08608 2.54976-9.35936 75.39712-37.98016 115.07712-58.66496 119.04-62.06464l0-51.01568c0-31.744-18.70848-50.45248-56.12544-56.1152l-28.90752 0L186.32704 407.37792c-7.936 0-13.03552-0.5632-15.29856-1.69984-17.00864-1.69984-30.18752-7.3728-39.53664-17.00864-9.35936-9.63584-14.60224-25.50784-15.72864-47.616l0-8.4992 0-110.5408L115.7632 161.62816 115.7632 160.77824 115.7632 158.22848c0-52.15232 11.33568-86.15936 34.01728-102.03136 14.17216-6.8096 27.78112-6.66624 40.81664 0.41984C203.6224 63.71328 212.6848 70.94272 217.79456 78.30528c13.03552 15.29856 21.9648 25.6512 26.78784 31.03744C249.3952 114.72896 258.32448 123.65824 271.36 136.12032c13.04576 12.47232 24.38144 21.25824 34.01728 26.35776 9.64608 5.09952 21.83168 10.05568 36.56704 14.87872 14.73536 4.8128 29.75744 7.22944 45.06624 7.22944l20.40832 0L512 184.58624l105.44128 0 19.5584 0c18.70848 0 35.9936-2.54976 51.8656-7.65952 15.872-5.09952 30.89408-13.4656 45.06624-25.07776 14.17216-11.6224 25.36448-21.54496 33.5872-29.75744 8.22272-8.22272 19.12832-20.26496 32.73728-36.13696 2.83648-3.39968 4.82304-5.94944 5.94944-7.64928 2.26304-2.27328 5.24288-5.09952 8.92928-8.4992 3.6864-3.39968 8.92928-7.22944 15.72864-11.47904 6.79936-4.2496 13.60896-6.52288 20.40832-6.8096 6.79936-0.28672 14.45888 1.28 22.95808 4.67968 22.67136 14.73536 34.01728 48.75264 34.01728 102.03136l0 2.54976 0 0.84992L908.24704 222.0032 908.24704 222.0032zM182.92736 276.41856c0 23.2448 7.64928 42.93632 22.95808 59.09504 15.29856 16.15872 34.58048 25.92768 57.81504 29.32736-14.73536-14.73536-22.10816-43.64288-22.10816-86.72256 0-23.808 2.54976-44.21632 7.65952-61.22496 5.09952-17.00864 11.33568-26.08128 18.70848-27.20768-22.67136 0-42.51648 8.64256-59.52512 25.93792C191.42656 232.91904 182.92736 253.184 182.92736 276.41856L182.92736 276.41856zM277.30944 364.8512c23.2448-3.39968 42.65984-13.03552 58.24512-28.90752 15.58528-15.872 23.38816-35.71712 23.38816-59.52512 0-23.808-8.36608-44.21632-25.088-61.22496C317.1328 198.1952 296.86784 189.68576 273.05984 189.68576c7.3728 1.69984 13.4656 10.77248 18.2784 27.20768 4.82304 16.4352 7.22944 36.84352 7.22944 61.22496 0 20.97152-1.8432 39.39328-5.5296 55.26528C289.36192 349.25568 284.1088 359.75168 277.30944 364.8512L277.30944 364.8512zM495.84128 259.42016c-3.97312 0-6.94272 1.13664-8.92928 3.39968-1.98656 2.26304-2.12992 4.82304-0.41984 7.64928l9.35936 12.75904c1.69984 1.69984 3.25632 3.39968 4.66944 5.09952 1.41312 1.69984 2.83648 3.6864 4.2496 5.94944 1.41312 2.26304 2.4064 3.6864 2.97984 4.2496 0 1.13664 1.41312 1.69984 4.2496 1.69984 2.83648 0 4.82304-0.5632 5.94944-1.69984l10.20928-15.3088 9.35936-12.75904c2.83648-2.83648 3.25632-5.38624 1.26976-7.64928-1.98656-2.26304-5.5296-3.39968-10.62912-3.39968L495.84128 259.42016 495.84128 259.42016zM605.53216 365.70112c-3.39968 3.97312-9.35936 7.22944-17.85856 9.7792-8.4992 2.54976-18.56512 2.83648-30.18752 0.84992-11.6224-1.98656-21.11488-7.79264-28.48768-17.42848-1.13664-2.27328-2.4064-6.23616-3.82976-11.90912-1.41312-5.66272-2.4064-9.34912-2.97984-11.04896-0.5632-2.83648-0.84992-7.64928-0.84992-14.45888l-18.70848 0c0 3.97312-0.5632 8.78592-1.69984 14.45888-0.57344 8.4992-2.83648 16.15872-6.79936 22.95808-6.23616 10.77248-15.16544 17.00864-26.78784 18.69824-11.6224 1.69984-21.82144 0.99328-30.6176-2.12992-8.78592-3.11296-14.87872-6.37952-18.2784-9.7792l0 10.20928c3.97312 6.23616 11.6224 10.77248 22.95808 13.59872 11.33568 2.83648 23.38816 2.41664 36.13696-1.26976 12.75904-3.6864 21.9648-11.20256 27.63776-22.528 0-0.5632 0.57344-1.41312 1.69984-2.54976 1.69984-1.69984 3.39968-2.54976 5.09952-2.54976 2.26304 0 4.2496 0.84992 5.94944 2.54976 0 1.13664 0.28672 1.97632 0.84992 2.54976 5.67296 10.77248 15.02208 18.00192 28.06784 21.67808 13.03552 3.6864 25.36448 4.2496 36.98688 1.69984 11.6224-2.54976 18.85184-6.94272 21.68832-13.17888L605.53216 365.70112 605.53216 365.70112zM665.05728 276.41856c0 22.67136 7.936 42.22976 23.808 58.66496 15.872 16.44544 34.8672 26.35776 56.97536 29.75744-13.60896-13.60896-20.40832-42.51648-20.40832-86.72256 0-24.94464 2.4064-45.48608 7.2192-61.6448 4.82304-16.15872 11.20256-25.088 19.12832-26.78784-23.2448 0-43.50976 8.64256-60.79488 25.93792C673.69984 232.91904 665.05728 253.184 665.05728 276.41856L665.05728 276.41856zM760.28928 364.8512c23.808-3.39968 43.22304-13.03552 58.24512-28.90752 15.02208-15.872 22.53824-35.71712 22.53824-59.52512 0-23.808-8.21248-44.21632-24.65792-61.22496-16.4352-17.00864-36.84352-25.50784-61.21472-25.50784 7.936 1.69984 14.31552 10.77248 19.12832 27.20768 4.8128 16.4352 7.2192 36.84352 7.2192 61.22496 0 20.97152-1.8432 39.39328-5.5296 55.26528C772.34176 349.25568 767.09888 359.75168 760.28928 364.8512L760.28928 364.8512z" p-id="9378" data-spm-anchor-id="a313x.7781069.0.i15" class="selected" fill="#ff002b"></path></svg>