<?xml version="1.0" standalone="no"?><!DOCTYPE svg PUBLIC "-//W3C//DTD SVG 1.1//EN" "http://www.w3.org/Graphics/SVG/1.1/DTD/svg11.dtd"><svg t="1571053815626" class="icon" viewBox="0 0 1024 1024" version="1.1" xmlns="http://www.w3.org/2000/svg" p-id="11363" xmlns:xlink="http://www.w3.org/1999/xlink" width="128" height="128"><defs><style type="text/css"></style></defs><path d="M700.16 64h-128c-128 0-258.24 96-258.24 307.84a266.56 266.56 0 0 0 132.48 245.12L288 900.16a40 40 0 0 0 0 40.64 38.72 38.72 0 0 0 32 19.2h79.68a39.68 39.68 0 0 0 38.4-24l146.88-288h10.88v275.84a36.48 36.48 0 0 0 38.4 36.16H704a35.84 35.84 0 0 0 37.12-33.92V103.04A38.08 38.08 0 0 0 704 64zM598.4 520.96h-18.88c-73.6 0-117.12-59.84-117.12-160 0-124.8 55.36-169.28 106.88-169.28h30.08z" fill="#D61E3B" p-id="11364"></path></svg>